<svg width="18" height="20" viewBox="0 0 18 20" fill="none" xmlns="http://www.w3.org/2000/svg">
<path d="M9.08298 20C10.2933 20 11.2737 19.0821 11.2737 17.9487H6.89227C6.89222 19.0821 7.87261 20 9.08298 20Z" fill="#CDD3D9"/>
<path d="M15.6551 13.8462V8.71793C15.6551 5.56409 13.8642 2.93332 10.7259 2.23587V1.53846C10.7259 0.687163 9.99204 0 9.08287 0C8.17369 0 7.43981 0.687163 7.43981 1.53846V2.23591C4.30157 2.93337 2.51064 5.56413 2.51064 8.71798V13.8462L0.319885 15.8975V16.9231H17.8458V15.8975L15.6551 13.8462Z" fill="#CDD3D9"/>
<path d="M16.716 3C16.716 4.35024 15.5369 5.5 14.0121 5.5C12.4872 5.5 11.3081 4.35024 11.3081 3C11.3081 1.64976 12.4872 0.5 14.0121 0.5C15.5369 0.5 16.716 1.64976 16.716 3Z" fill="#552CE8" stroke="white"/>
</svg>
