<svg width="15" height="16" viewBox="0 0 15 16" fill="none" xmlns="http://www.w3.org/2000/svg">
<path d="M6.80785 1.05256C7.02272 0.93323 7.26445 0.870613 7.51023 0.870613C7.75601 0.870613 7.99774 0.93323 8.21261 1.05256L13.6487 4.07186C13.7614 4.13453 13.8553 4.22619 13.9206 4.33735C13.986 4.44851 14.0205 4.57512 14.0205 4.70407V10.6609C14.0204 10.9189 13.9514 11.1722 13.8205 11.3945C13.6896 11.6168 13.5017 11.8001 13.2761 11.9254L8.21261 14.7392C7.99774 14.8586 7.75601 14.9212 7.51023 14.9212C7.26445 14.9212 7.02272 14.8586 6.80785 14.7392L1.74434 11.9254C1.51891 11.8002 1.33103 11.617 1.20016 11.3948C1.0693 11.1726 1.00019 10.9195 1 10.6617V4.70407C0.999995 4.57512 1.03446 4.44851 1.09983 4.33735C1.16521 4.22619 1.2591 4.13453 1.37181 4.07186L6.80857 1.05256H6.80785Z" stroke="#4F5B67" stroke-linecap="round" stroke-linejoin="round"/>
<path d="M7.51023 7.8958V15.1294M1 4.279L7.51023 7.8958L1 4.279ZM7.51023 7.8958L14.0205 4.279L7.51023 7.8958Z" stroke="#4F5B67" stroke-linejoin="round"/>
<path d="M3.17004 8.13247L5.34012 9.34193M4.25508 6.08681L10.7653 2.47002L4.25508 6.08681Z" stroke="#4F5B67" stroke-linecap="round" stroke-linejoin="round"/>
</svg>
