<svg width="20" height="20" viewBox="0 0 20 20" fill="none" xmlns="http://www.w3.org/2000/svg">
<path d="M15 9.99999C15 10.4583 15.375 10.8333 15.8333 10.8333H17.5C17.9583 10.8333 18.3333 10.4583 18.3333 9.99999C18.3333 9.54166 17.9583 9.16666 17.5 9.16666H15.8333C15.375 9.16666 15 9.54166 15 9.99999ZM13.825 14.0167C13.7595 14.102 13.7119 14.1996 13.6848 14.3037C13.6577 14.4078 13.6518 14.5163 13.6673 14.6227C13.6828 14.7291 13.7195 14.8313 13.7752 14.9233C13.8309 15.0153 13.9045 15.0952 13.9916 15.1583C14.4333 15.4833 14.9 15.8333 15.3416 16.1667C15.7083 16.4417 16.225 16.3667 16.4916 16C16.4916 15.9917 16.5 15.9917 16.5 15.9833C16.5654 15.8972 16.613 15.7989 16.6401 15.6942C16.6671 15.5895 16.6731 15.4804 16.6576 15.3734C16.6421 15.2664 16.6054 15.1635 16.5497 15.0708C16.4941 14.978 16.4205 14.8973 16.3333 14.8333C15.8916 14.5 15.425 14.15 14.9916 13.825C14.9041 13.7603 14.8047 13.7135 14.6991 13.6873C14.5935 13.6611 14.4838 13.656 14.3762 13.6722C14.2686 13.6885 14.1652 13.7258 14.0721 13.7821C13.9789 13.8383 13.8978 13.9124 13.8333 14C13.8333 14.0083 13.825 14.0167 13.825 14.0167ZM16.5083 4.00833C16.5083 3.99999 16.5 3.99999 16.5 3.99166C16.4358 3.90466 16.355 3.83126 16.2623 3.77571C16.1696 3.72017 16.0668 3.68358 15.9598 3.66808C15.8528 3.65258 15.7438 3.65846 15.6391 3.6854C15.5345 3.71234 15.4362 3.75978 15.35 3.82499C14.9083 4.15833 14.4333 4.50833 14 4.84166C13.6333 5.11666 13.5666 5.63333 13.8416 5.99166C13.8416 5.99999 13.85 5.99999 13.85 6.00833C14.125 6.37499 14.6333 6.44999 15 6.17499C15.4416 5.84999 15.9083 5.49166 16.35 5.15833C16.7083 4.89166 16.775 4.37499 16.5083 4.00833ZM6.66663 7.49999H3.33329C2.41663 7.49999 1.66663 8.24999 1.66663 9.16666V10.8333C1.66663 11.75 2.41663 12.5 3.33329 12.5H4.16663V15C4.16663 15.4583 4.54163 15.8333 4.99996 15.8333C5.45829 15.8333 5.83329 15.4583 5.83329 15V12.5H6.66663L10.8333 15V4.99999L6.66663 7.49999ZM12.9166 9.99999C12.9166 8.89166 12.4333 7.89166 11.6666 7.20833V12.7833C12.4333 12.1083 12.9166 11.1083 12.9166 9.99999Z" fill="#4F5B67"/>
</svg>
