<svg width="16" height="14" viewBox="0 0 16 14" fill="none" xmlns="http://www.w3.org/2000/svg">
<g clip-path="url(#clip0_1_1162)">
<path d="M10.5 3.3332C10.5 3.16094 10.4316 2.99414 10.3086 2.87109L7.63164 0.191406C7.50859 0.0683594 7.3418 0 7.1668 0H7V3.5H10.5V3.3332Z" fill="white"/>
<path d="M15.6133 8.42188L12.9965 5.78594C12.7203 5.50977 12.2473 5.70391 12.2473 6.09492V7.875H10.4973V9.625H12.2473V11.4078C12.2473 11.7988 12.7203 11.993 12.9965 11.7168L15.6133 9.07812C15.7937 8.89766 15.7937 8.60234 15.6133 8.42188ZM5.25 9.1875V8.3125C5.25 8.07187 5.44688 7.875 5.6875 7.875H10.5V4.375H6.78125C6.42031 4.375 6.125 4.07969 6.125 3.71875V0H0.65625C0.292578 0 0 0.292578 0 0.65625V13.3438C0 13.7074 0.292578 14 0.65625 14H9.84375C10.2074 14 10.5 13.7074 10.5 13.3438V9.625H5.6875C5.44688 9.625 5.25 9.42813 5.25 9.1875Z" fill="white"/>
</g>
<defs>
<clipPath id="clip0_1_1162">
<rect width="15.75" height="14" fill="white"/>
</clipPath>
</defs>
</svg>
