<svg width="16" height="16" viewBox="0 0 16 16" fill="none" xmlns="http://www.w3.org/2000/svg">
<path d="M3.60027 1.40005H12.4003C13.1336 1.40005 13.7336 2.00005 13.7336 2.73339V4.20005C13.7336 4.73339 13.4003 5.40005 13.0669 5.73339L10.2003 8.26672C9.80028 8.60005 9.53361 9.26672 9.53361 9.80005V12.6667C9.53361 13.0667 9.26694 13.6001 8.93361 13.8001L8.00028 14.4001C7.13361 14.9334 5.9336 14.3334 5.9336 13.2667V9.73339C5.9336 9.26672 5.66694 8.66672 5.40027 8.33339L2.86694 5.66672C2.5336 5.33339 2.26694 4.73339 2.26694 4.33339V2.80005C2.26694 2.00005 2.86694 1.40005 3.60027 1.40005Z" stroke="white" stroke-width="1.5" stroke-miterlimit="10" stroke-linecap="round" stroke-linejoin="round"/>
</svg>
