<svg width="18" height="18" viewBox="0 0 18 18" fill="none" xmlns="http://www.w3.org/2000/svg">
<path d="M14.19 4.5075C14.04 4.065 13.62 3.75 13.125 3.75H4.875C4.38 3.75 3.9675 4.065 3.81 4.5075L2.3325 8.76C2.28 8.9175 2.25 9.0825 2.25 9.255V14.625C2.25 15.2475 2.7525 15.75 3.375 15.75C3.9975 15.75 4.5 15.2475 4.5 14.625V14.25H13.5V14.625C13.5 15.24 14.0025 15.75 14.625 15.75C15.24 15.75 15.75 15.2475 15.75 14.625V9.255C15.75 9.09 15.72 8.9175 15.6675 8.76L14.19 4.5075ZM4.875 12C4.2525 12 3.75 11.4975 3.75 10.875C3.75 10.2525 4.2525 9.75 4.875 9.75C5.4975 9.75 6 10.2525 6 10.875C6 11.4975 5.4975 12 4.875 12ZM13.125 12C12.5025 12 12 11.4975 12 10.875C12 10.2525 12.5025 9.75 13.125 9.75C13.7475 9.75 14.25 10.2525 14.25 10.875C14.25 11.4975 13.7475 12 13.125 12ZM3.75 8.25L4.7025 5.385C4.8075 5.085 5.0925 4.875 5.415 4.875H12.585C12.9075 4.875 13.1925 5.085 13.2975 5.385L14.25 8.25H3.75Z" fill="#4F5B67"/>
</svg>
