<svg width="18" height="18" viewBox="0 0 18 18" fill="none" xmlns="http://www.w3.org/2000/svg">
<path d="M7.20005 4.5C7.20005 4.02261 7.38969 3.56477 7.72726 3.22721C8.06482 2.88964 8.52266 2.7 9.00005 2.7C9.47744 2.7 9.93528 2.88964 10.2728 3.22721C10.6104 3.56477 10.8 4.02261 10.8 4.5V5.211C13.4028 5.985 15.3 8.3961 15.3 11.25C15.3 11.3693 15.2526 11.4838 15.1682 11.5682C15.0839 11.6526 14.9694 11.7 14.85 11.7H3.15005C3.0307 11.7 2.91624 11.6526 2.83185 11.5682C2.74746 11.4838 2.70005 11.3693 2.70005 11.25C2.70013 9.89312 3.13811 8.57249 3.94886 7.48446C4.75962 6.39643 5.89985 5.5991 7.20005 5.211V4.5ZM9.45005 7.65C9.82985 7.65 10.206 7.6536 10.5912 7.7922C10.9629 7.9254 11.3742 8.1981 11.7756 8.8002C11.8084 8.84937 11.8506 8.89159 11.8997 8.92447C11.9488 8.95734 12.004 8.98022 12.0619 8.99179C12.1199 9.00337 12.1795 9.00341 12.2375 8.99193C12.2955 8.98044 12.3506 8.95765 12.3998 8.92485C12.449 8.89205 12.4912 8.84989 12.5241 8.80078C12.5569 8.75166 12.5798 8.69655 12.5914 8.63859C12.603 8.58063 12.603 8.52096 12.5915 8.46299C12.58 8.40501 12.5572 8.34987 12.5244 8.3007C12.0249 7.5519 11.4624 7.1487 10.8954 6.9453C10.3545 6.75 9.83705 6.75 9.46805 6.75H9.45005C9.3307 6.75 9.21624 6.79741 9.13185 6.8818C9.04746 6.96619 9.00005 7.08065 9.00005 7.2C9.00005 7.31935 9.04746 7.43381 9.13185 7.5182C9.21624 7.60259 9.3307 7.65 9.45005 7.65ZM3.15005 12.6C2.79201 12.6 2.44863 12.7422 2.19545 12.9954C1.94228 13.2486 1.80005 13.592 1.80005 13.95C1.80005 14.308 1.94228 14.6514 2.19545 14.9046C2.44863 15.1578 2.79201 15.3 3.15005 15.3H14.85C15.2081 15.3 15.5515 15.1578 15.8046 14.9046C16.0578 14.6514 16.2 14.308 16.2 13.95C16.2 13.592 16.0578 13.2486 15.8046 12.9954C15.5515 12.7422 15.2081 12.6 14.85 12.6H3.15005Z" fill="#4F5B67"/>
</svg>
