<svg width="18" height="18" viewBox="0 0 18 18" fill="none" xmlns="http://www.w3.org/2000/svg">
<g clip-path="url(#clip0_1_821)">
<path d="M14.1027 5.22323H11.8929V3.89733C11.8929 3.16533 11.299 2.57144 10.567 2.57144H6.14737C5.41537 2.57144 4.82148 3.16533 4.82148 3.89733V5.22323H2.61166C1.87966 5.22323 1.28577 5.81712 1.28577 6.54912V14.5045C1.28577 15.2365 1.87966 15.8304 2.61166 15.8304H14.1027C14.8347 15.8304 15.4286 15.2365 15.4286 14.5045V6.54912C15.4286 5.81712 14.8347 5.22323 14.1027 5.22323ZM6.14737 3.89733H10.567V5.22323H6.14737V3.89733ZM11.4509 11.245C11.4509 11.4891 11.2531 11.687 11.009 11.687H9.51735V13.1786C9.51735 13.4227 9.31946 13.6205 9.10025 13.6205H7.66386C7.41982 13.6205 7.2219 13.4227 7.2219 13.1786V11.7118H5.70541C5.46133 11.7118 5.26345 11.5139 5.26345 11.2699V9.83347C5.26345 9.58934 5.46133 9.3915 5.70541 9.3915H7.17218V7.87501C7.17218 7.63088 7.3701 7.43305 7.61414 7.43305H9.05053C9.2946 7.43305 9.46763 7.63088 9.46763 7.87501V9.36664H11.009C11.2531 9.36664 11.4509 9.56448 11.4509 9.80861V11.245Z" fill="#4F5B67"/>
</g>
<defs>
<clipPath id="clip0_1_821">
<rect width="14.1429" height="14.1429" fill="white" transform="translate(1.28577 2.57144)"/>
</clipPath>
</defs>
</svg>
