<svg width="79" height="30" viewBox="0 0 79 30" fill="none" xmlns="http://www.w3.org/2000/svg">
<rect width="79" height="30" rx="10" fill="#FFCF0F"/>
<path d="M13.016 19.12C12.376 19.12 11.78 19.016 11.228 18.808C10.684 18.592 10.208 18.292 9.8 17.908C9.4 17.516 9.088 17.056 8.864 16.528C8.64 16 8.528 15.424 8.528 14.8C8.528 14.176 8.64 13.6 8.864 13.072C9.088 12.544 9.404 12.088 9.812 11.704C10.22 11.312 10.696 11.012 11.24 10.804C11.784 10.588 12.38 10.48 13.028 10.48C13.716 10.48 14.344 10.6 14.912 10.84C15.48 11.072 15.96 11.42 16.352 11.884L15.344 12.832C15.04 12.504 14.7 12.26 14.324 12.1C13.948 11.932 13.54 11.848 13.1 11.848C12.66 11.848 12.256 11.92 11.888 12.064C11.528 12.208 11.212 12.412 10.94 12.676C10.676 12.94 10.468 13.252 10.316 13.612C10.172 13.972 10.1 14.368 10.1 14.8C10.1 15.232 10.172 15.628 10.316 15.988C10.468 16.348 10.676 16.66 10.94 16.924C11.212 17.188 11.528 17.392 11.888 17.536C12.256 17.68 12.66 17.752 13.1 17.752C13.54 17.752 13.948 17.672 14.324 17.512C14.7 17.344 15.04 17.092 15.344 16.756L16.352 17.716C15.96 18.172 15.48 18.52 14.912 18.76C14.344 19 13.712 19.12 13.016 19.12ZM20.3367 19.084C19.6807 19.084 19.0967 18.944 18.5847 18.664C18.0727 18.376 17.6687 17.984 17.3727 17.488C17.0767 16.992 16.9287 16.428 16.9287 15.796C16.9287 15.156 17.0767 14.592 17.3727 14.104C17.6687 13.608 18.0727 13.22 18.5847 12.94C19.0967 12.66 19.6807 12.52 20.3367 12.52C21.0007 12.52 21.5887 12.66 22.1007 12.94C22.6207 13.22 23.0247 13.604 23.3127 14.092C23.6087 14.58 23.7567 15.148 23.7567 15.796C23.7567 16.428 23.6087 16.992 23.3127 17.488C23.0247 17.984 22.6207 18.376 22.1007 18.664C21.5887 18.944 21.0007 19.084 20.3367 19.084ZM20.3367 17.8C20.7047 17.8 21.0327 17.72 21.3207 17.56C21.6087 17.4 21.8327 17.168 21.9927 16.864C22.1607 16.56 22.2447 16.204 22.2447 15.796C22.2447 15.38 22.1607 15.024 21.9927 14.728C21.8327 14.424 21.6087 14.192 21.3207 14.032C21.0327 13.872 20.7087 13.792 20.3487 13.792C19.9807 13.792 19.6527 13.872 19.3647 14.032C19.0847 14.192 18.8607 14.424 18.6927 14.728C18.5247 15.024 18.4407 15.38 18.4407 15.796C18.4407 16.204 18.5247 16.56 18.6927 16.864C18.8607 17.168 19.0847 17.4 19.3647 17.56C19.6527 17.72 19.9767 17.8 20.3367 17.8ZM28.827 12.52C29.339 12.52 29.795 12.62 30.195 12.82C30.603 13.02 30.923 13.328 31.155 13.744C31.387 14.152 31.503 14.68 31.503 15.328V19H30.003V15.52C30.003 14.952 29.867 14.528 29.595 14.248C29.331 13.968 28.959 13.828 28.479 13.828C28.127 13.828 27.815 13.9 27.543 14.044C27.271 14.188 27.059 14.404 26.907 14.692C26.763 14.972 26.691 15.328 26.691 15.76V19H25.191V12.592H26.619V14.32L26.367 13.792C26.591 13.384 26.915 13.072 27.339 12.856C27.771 12.632 28.267 12.52 28.827 12.52ZM35.8179 19.084C35.1139 19.084 34.5699 18.904 34.1859 18.544C33.8019 18.176 33.6099 17.636 33.6099 16.924V11.176H35.1099V16.888C35.1099 17.192 35.1859 17.428 35.3379 17.596C35.4979 17.764 35.7179 17.848 35.9979 17.848C36.3339 17.848 36.6139 17.76 36.8379 17.584L37.2579 18.652C37.0819 18.796 36.8659 18.904 36.6099 18.976C36.3539 19.048 36.0899 19.084 35.8179 19.084ZM32.5539 13.84V12.64H36.8259V13.84H32.5539ZM38.4918 19V12.592H39.9918V19H38.4918ZM39.2478 11.536C38.9678 11.536 38.7358 11.448 38.5518 11.272C38.3758 11.096 38.2878 10.884 38.2878 10.636C38.2878 10.38 38.3758 10.168 38.5518 10C38.7358 9.824 38.9678 9.736 39.2478 9.736C39.5278 9.736 39.7558 9.82 39.9318 9.988C40.1158 10.148 40.2078 10.352 40.2078 10.6C40.2078 10.864 40.1198 11.088 39.9438 11.272C39.7678 11.448 39.5358 11.536 39.2478 11.536ZM45.5966 12.52C46.1086 12.52 46.5646 12.62 46.9646 12.82C47.3726 13.02 47.6926 13.328 47.9246 13.744C48.1566 14.152 48.2726 14.68 48.2726 15.328V19H46.7726V15.52C46.7726 14.952 46.6366 14.528 46.3646 14.248C46.1006 13.968 45.7286 13.828 45.2486 13.828C44.8966 13.828 44.5846 13.9 44.3126 14.044C44.0406 14.188 43.8286 14.404 43.6766 14.692C43.5326 14.972 43.4606 15.328 43.4606 15.76V19H41.9606V12.592H43.3886V14.32L43.1366 13.792C43.3606 13.384 43.6846 13.072 44.1086 12.856C44.5406 12.632 45.0366 12.52 45.5966 12.52ZM52.8874 19.084C52.3434 19.084 51.8634 18.984 51.4474 18.784C51.0314 18.576 50.7074 18.264 50.4754 17.848C50.2434 17.424 50.1274 16.892 50.1274 16.252V12.592H51.6274V16.048C51.6274 16.624 51.7554 17.056 52.0114 17.344C52.2754 17.624 52.6474 17.764 53.1274 17.764C53.4794 17.764 53.7834 17.692 54.0394 17.548C54.3034 17.404 54.5074 17.188 54.6514 16.9C54.8034 16.612 54.8794 16.256 54.8794 15.832V12.592H56.3794V19H54.9514V17.272L55.2034 17.8C54.9874 18.216 54.6714 18.536 54.2554 18.76C53.8394 18.976 53.3834 19.084 52.8874 19.084ZM61.3554 19.084C60.6434 19.084 60.0194 18.944 59.4834 18.664C58.9554 18.376 58.5434 17.984 58.2474 17.488C57.9594 16.992 57.8154 16.428 57.8154 15.796C57.8154 15.156 57.9554 14.592 58.2354 14.104C58.5234 13.608 58.9154 13.22 59.4114 12.94C59.9154 12.66 60.4874 12.52 61.1274 12.52C61.7514 12.52 62.3074 12.656 62.7954 12.928C63.2834 13.2 63.6674 13.584 63.9474 14.08C64.2274 14.576 64.3674 15.16 64.3674 15.832C64.3674 15.896 64.3634 15.968 64.3554 16.048C64.3554 16.128 64.3514 16.204 64.3434 16.276H59.0034V15.28H63.5514L62.9634 15.592C62.9714 15.224 62.8954 14.9 62.7354 14.62C62.5754 14.34 62.3554 14.12 62.0754 13.96C61.8034 13.8 61.4874 13.72 61.1274 13.72C60.7594 13.72 60.4354 13.8 60.1554 13.96C59.8834 14.12 59.6674 14.344 59.5074 14.632C59.3554 14.912 59.2794 15.244 59.2794 15.628V15.868C59.2794 16.252 59.3674 16.592 59.5434 16.888C59.7194 17.184 59.9674 17.412 60.2874 17.572C60.6074 17.732 60.9754 17.812 61.3914 17.812C61.7514 17.812 62.0754 17.756 62.3634 17.644C62.6514 17.532 62.9074 17.356 63.1314 17.116L63.9354 18.04C63.6474 18.376 63.2834 18.636 62.8434 18.82C62.4114 18.996 61.9154 19.084 61.3554 19.084ZM67.7882 19.084C67.2522 19.084 66.7362 19.016 66.2402 18.88C65.7522 18.736 65.3642 18.564 65.0762 18.364L65.6522 17.224C65.9402 17.408 66.2842 17.56 66.6842 17.68C67.0842 17.8 67.4842 17.86 67.8842 17.86C68.3562 17.86 68.6962 17.796 68.9042 17.668C69.1202 17.54 69.2282 17.368 69.2282 17.152C69.2282 16.976 69.1562 16.844 69.0122 16.756C68.8682 16.66 68.6802 16.588 68.4482 16.54C68.2162 16.492 67.9562 16.448 67.6682 16.408C67.3882 16.368 67.1042 16.316 66.8162 16.252C66.5362 16.18 66.2802 16.08 66.0482 15.952C65.8162 15.816 65.6282 15.636 65.4842 15.412C65.3402 15.188 65.2682 14.892 65.2682 14.524C65.2682 14.116 65.3842 13.764 65.6162 13.468C65.8482 13.164 66.1722 12.932 66.5882 12.772C67.0122 12.604 67.5122 12.52 68.0882 12.52C68.5202 12.52 68.9562 12.568 69.3962 12.664C69.8362 12.76 70.2002 12.896 70.4882 13.072L69.9122 14.212C69.6082 14.028 69.3002 13.904 68.9882 13.84C68.6842 13.768 68.3802 13.732 68.0762 13.732C67.6202 13.732 67.2802 13.8 67.0562 13.936C66.8402 14.072 66.7322 14.244 66.7322 14.452C66.7322 14.644 66.8042 14.788 66.9482 14.884C67.0922 14.98 67.2802 15.056 67.5122 15.112C67.7442 15.168 68.0002 15.216 68.2802 15.256C68.5682 15.288 68.8522 15.34 69.1322 15.412C69.4122 15.484 69.6682 15.584 69.9002 15.712C70.1402 15.832 70.3322 16.004 70.4762 16.228C70.6202 16.452 70.6922 16.744 70.6922 17.104C70.6922 17.504 70.5722 17.852 70.3322 18.148C70.1002 18.444 69.7682 18.676 69.3362 18.844C68.9042 19.004 68.3882 19.084 67.7882 19.084Z" fill="#FAFAFA"/>
</svg>
