<svg width="85" height="30" viewBox="0 0 85 30" fill="none" xmlns="http://www.w3.org/2000/svg">
<rect width="85" height="30" rx="10" fill="#44C13C"/>
<path d="M13.016 19.12C12.376 19.12 11.78 19.016 11.228 18.808C10.684 18.592 10.208 18.292 9.8 17.908C9.4 17.516 9.088 17.056 8.864 16.528C8.64 16 8.528 15.424 8.528 14.8C8.528 14.176 8.64 13.6 8.864 13.072C9.088 12.544 9.404 12.088 9.812 11.704C10.22 11.312 10.696 11.012 11.24 10.804C11.784 10.588 12.38 10.48 13.028 10.48C13.716 10.48 14.344 10.6 14.912 10.84C15.48 11.072 15.96 11.42 16.352 11.884L15.344 12.832C15.04 12.504 14.7 12.26 14.324 12.1C13.948 11.932 13.54 11.848 13.1 11.848C12.66 11.848 12.256 11.92 11.888 12.064C11.528 12.208 11.212 12.412 10.94 12.676C10.676 12.94 10.468 13.252 10.316 13.612C10.172 13.972 10.1 14.368 10.1 14.8C10.1 15.232 10.172 15.628 10.316 15.988C10.468 16.348 10.676 16.66 10.94 16.924C11.212 17.188 11.528 17.392 11.888 17.536C12.256 17.68 12.66 17.752 13.1 17.752C13.54 17.752 13.948 17.672 14.324 17.512C14.7 17.344 15.04 17.092 15.344 16.756L16.352 17.716C15.96 18.172 15.48 18.52 14.912 18.76C14.344 19 13.712 19.12 13.016 19.12ZM20.3367 19.084C19.6807 19.084 19.0967 18.944 18.5847 18.664C18.0727 18.376 17.6687 17.984 17.3727 17.488C17.0767 16.992 16.9287 16.428 16.9287 15.796C16.9287 15.156 17.0767 14.592 17.3727 14.104C17.6687 13.608 18.0727 13.22 18.5847 12.94C19.0967 12.66 19.6807 12.52 20.3367 12.52C21.0007 12.52 21.5887 12.66 22.1007 12.94C22.6207 13.22 23.0247 13.604 23.3127 14.092C23.6087 14.58 23.7567 15.148 23.7567 15.796C23.7567 16.428 23.6087 16.992 23.3127 17.488C23.0247 17.984 22.6207 18.376 22.1007 18.664C21.5887 18.944 21.0007 19.084 20.3367 19.084ZM20.3367 17.8C20.7047 17.8 21.0327 17.72 21.3207 17.56C21.6087 17.4 21.8327 17.168 21.9927 16.864C22.1607 16.56 22.2447 16.204 22.2447 15.796C22.2447 15.38 22.1607 15.024 21.9927 14.728C21.8327 14.424 21.6087 14.192 21.3207 14.032C21.0327 13.872 20.7087 13.792 20.3487 13.792C19.9807 13.792 19.6527 13.872 19.3647 14.032C19.0847 14.192 18.8607 14.424 18.6927 14.728C18.5247 15.024 18.4407 15.38 18.4407 15.796C18.4407 16.204 18.5247 16.56 18.6927 16.864C18.8607 17.168 19.0847 17.4 19.3647 17.56C19.6527 17.72 19.9767 17.8 20.3367 17.8ZM33.279 12.52C33.791 12.52 34.243 12.62 34.635 12.82C35.035 13.02 35.347 13.328 35.571 13.744C35.795 14.152 35.907 14.68 35.907 15.328V19H34.407V15.52C34.407 14.952 34.283 14.528 34.035 14.248C33.787 13.968 33.431 13.828 32.967 13.828C32.639 13.828 32.347 13.9 32.091 14.044C31.843 14.188 31.647 14.4 31.503 14.68C31.367 14.96 31.299 15.316 31.299 15.748V19H29.799V15.52C29.799 14.952 29.675 14.528 29.427 14.248C29.179 13.968 28.823 13.828 28.359 13.828C28.031 13.828 27.739 13.9 27.483 14.044C27.235 14.188 27.039 14.4 26.895 14.68C26.759 14.96 26.691 15.316 26.691 15.748V19H25.191V12.592H26.619V14.296L26.367 13.792C26.583 13.376 26.895 13.06 27.303 12.844C27.719 12.628 28.191 12.52 28.719 12.52C29.319 12.52 29.839 12.668 30.279 12.964C30.727 13.26 31.023 13.708 31.167 14.308L30.579 14.104C30.787 13.624 31.131 13.24 31.611 12.952C32.091 12.664 32.647 12.52 33.279 12.52ZM41.3758 19.084C40.8558 19.084 40.3798 18.964 39.9478 18.724C39.5238 18.484 39.1838 18.124 38.9278 17.644C38.6798 17.156 38.5558 16.54 38.5558 15.796C38.5558 15.044 38.6758 14.428 38.9158 13.948C39.1638 13.468 39.4998 13.112 39.9238 12.88C40.3478 12.64 40.8318 12.52 41.3758 12.52C42.0078 12.52 42.5638 12.656 43.0438 12.928C43.5318 13.2 43.9158 13.58 44.1958 14.068C44.4838 14.556 44.6278 15.132 44.6278 15.796C44.6278 16.46 44.4838 17.04 44.1958 17.536C43.9158 18.024 43.5318 18.404 43.0438 18.676C42.5638 18.948 42.0078 19.084 41.3758 19.084ZM37.8238 21.328V12.592H39.2518V14.104L39.2038 15.808L39.3238 17.512V21.328H37.8238ZM41.2078 17.8C41.5678 17.8 41.8878 17.72 42.1678 17.56C42.4558 17.4 42.6838 17.168 42.8518 16.864C43.0198 16.56 43.1038 16.204 43.1038 15.796C43.1038 15.38 43.0198 15.024 42.8518 14.728C42.6838 14.424 42.4558 14.192 42.1678 14.032C41.8878 13.872 41.5678 13.792 41.2078 13.792C40.8478 13.792 40.5238 13.872 40.2358 14.032C39.9478 14.192 39.7198 14.424 39.5518 14.728C39.3838 15.024 39.2998 15.38 39.2998 15.796C39.2998 16.204 39.3838 16.56 39.5518 16.864C39.7198 17.168 39.9478 17.4 40.2358 17.56C40.5238 17.72 40.8478 17.8 41.2078 17.8ZM46.0504 19V10.096H47.5504V19H46.0504ZM52.5312 19.084C51.8192 19.084 51.1952 18.944 50.6592 18.664C50.1312 18.376 49.7192 17.984 49.4232 17.488C49.1352 16.992 48.9912 16.428 48.9912 15.796C48.9912 15.156 49.1312 14.592 49.4112 14.104C49.6992 13.608 50.0912 13.22 50.5872 12.94C51.0912 12.66 51.6632 12.52 52.3032 12.52C52.9272 12.52 53.4832 12.656 53.9712 12.928C54.4592 13.2 54.8432 13.584 55.1232 14.08C55.4032 14.576 55.5432 15.16 55.5432 15.832C55.5432 15.896 55.5392 15.968 55.5312 16.048C55.5312 16.128 55.5272 16.204 55.5192 16.276H50.1792V15.28H54.7272L54.1392 15.592C54.1472 15.224 54.0712 14.9 53.9112 14.62C53.7512 14.34 53.5312 14.12 53.2512 13.96C52.9792 13.8 52.6632 13.72 52.3032 13.72C51.9352 13.72 51.6112 13.8 51.3312 13.96C51.0592 14.12 50.8432 14.344 50.6832 14.632C50.5312 14.912 50.4552 15.244 50.4552 15.628V15.868C50.4552 16.252 50.5432 16.592 50.7192 16.888C50.8952 17.184 51.1432 17.412 51.4632 17.572C51.7832 17.732 52.1512 17.812 52.5672 17.812C52.9272 17.812 53.2512 17.756 53.5392 17.644C53.8272 17.532 54.0832 17.356 54.3072 17.116L55.1112 18.04C54.8232 18.376 54.4592 18.636 54.0192 18.82C53.5872 18.996 53.0912 19.084 52.5312 19.084ZM59.396 19.084C58.692 19.084 58.148 18.904 57.764 18.544C57.38 18.176 57.188 17.636 57.188 16.924V11.176H58.688V16.888C58.688 17.192 58.764 17.428 58.916 17.596C59.076 17.764 59.296 17.848 59.576 17.848C59.912 17.848 60.192 17.76 60.416 17.584L60.836 18.652C60.66 18.796 60.444 18.904 60.188 18.976C59.932 19.048 59.668 19.084 59.396 19.084ZM56.132 13.84V12.64H60.404V13.84H56.132ZM64.871 19.084C64.159 19.084 63.535 18.944 62.999 18.664C62.471 18.376 62.059 17.984 61.763 17.488C61.475 16.992 61.331 16.428 61.331 15.796C61.331 15.156 61.471 14.592 61.751 14.104C62.039 13.608 62.431 13.22 62.927 12.94C63.431 12.66 64.003 12.52 64.643 12.52C65.267 12.52 65.823 12.656 66.311 12.928C66.799 13.2 67.183 13.584 67.463 14.08C67.743 14.576 67.883 15.16 67.883 15.832C67.883 15.896 67.879 15.968 67.871 16.048C67.871 16.128 67.867 16.204 67.859 16.276H62.519V15.28H67.067L66.479 15.592C66.487 15.224 66.411 14.9 66.251 14.62C66.091 14.34 65.871 14.12 65.591 13.96C65.319 13.8 65.003 13.72 64.643 13.72C64.275 13.72 63.951 13.8 63.671 13.96C63.399 14.12 63.183 14.344 63.023 14.632C62.871 14.912 62.795 15.244 62.795 15.628V15.868C62.795 16.252 62.883 16.592 63.059 16.888C63.235 17.184 63.483 17.412 63.803 17.572C64.123 17.732 64.491 17.812 64.907 17.812C65.267 17.812 65.591 17.756 65.879 17.644C66.167 17.532 66.423 17.356 66.647 17.116L67.451 18.04C67.163 18.376 66.799 18.636 66.359 18.82C65.927 18.996 65.431 19.084 64.871 19.084ZM72.0358 19.084C71.4198 19.084 70.8638 18.948 70.3678 18.676C69.8798 18.396 69.4958 18.012 69.2158 17.524C68.9358 17.036 68.7958 16.46 68.7958 15.796C68.7958 15.132 68.9358 14.556 69.2158 14.068C69.4958 13.58 69.8798 13.2 70.3678 12.928C70.8638 12.656 71.4198 12.52 72.0358 12.52C72.5718 12.52 73.0518 12.64 73.4758 12.88C73.8998 13.112 74.2358 13.468 74.4838 13.948C74.7318 14.428 74.8558 15.044 74.8558 15.796C74.8558 16.54 74.7358 17.156 74.4958 17.644C74.2558 18.124 73.9238 18.484 73.4998 18.724C73.0758 18.964 72.5878 19.084 72.0358 19.084ZM72.2158 17.8C72.5758 17.8 72.8958 17.72 73.1758 17.56C73.4638 17.4 73.6918 17.168 73.8598 16.864C74.0358 16.56 74.1238 16.204 74.1238 15.796C74.1238 15.38 74.0358 15.024 73.8598 14.728C73.6918 14.424 73.4638 14.192 73.1758 14.032C72.8958 13.872 72.5758 13.792 72.2158 13.792C71.8558 13.792 71.5318 13.872 71.2438 14.032C70.9638 14.192 70.7358 14.424 70.5598 14.728C70.3918 15.024 70.3078 15.38 70.3078 15.796C70.3078 16.204 70.3918 16.56 70.5598 16.864C70.7358 17.168 70.9638 17.4 71.2438 17.56C71.5318 17.72 71.8558 17.8 72.2158 17.8ZM74.1598 19V17.488L74.2198 15.784L74.0998 14.08V10.096H75.5878V19H74.1598Z" fill="#FAFAFA"/>
</svg>
