<svg width="65" height="30" viewBox="0 0 65 30" fill="none" xmlns="http://www.w3.org/2000/svg">
<rect width="65" height="30" rx="10" fill="#FF513A"/>
<path d="M11.108 19L8.324 10.6H9.944L12.428 18.196H11.624L14.204 10.6H15.644L18.152 18.196H17.372L19.916 10.6H21.404L18.62 19H16.964L14.672 12.148H15.104L12.776 19H11.108ZM25.9984 19V17.704L25.9144 17.428V15.16C25.9144 14.72 25.7824 14.38 25.5184 14.14C25.2544 13.892 24.8544 13.768 24.3184 13.768C23.9584 13.768 23.6024 13.824 23.2504 13.936C22.9064 14.048 22.6144 14.204 22.3744 14.404L21.7864 13.312C22.1304 13.048 22.5384 12.852 23.0104 12.724C23.4904 12.588 23.9864 12.52 24.4984 12.52C25.4264 12.52 26.1424 12.744 26.6464 13.192C27.1584 13.632 27.4144 14.316 27.4144 15.244V19H25.9984ZM23.9824 19.084C23.5024 19.084 23.0824 19.004 22.7224 18.844C22.3624 18.676 22.0824 18.448 21.8824 18.16C21.6904 17.864 21.5944 17.532 21.5944 17.164C21.5944 16.804 21.6784 16.48 21.8464 16.192C22.0224 15.904 22.3064 15.676 22.6984 15.508C23.0904 15.34 23.6104 15.256 24.2584 15.256H26.1184V16.252H24.3664C23.8544 16.252 23.5104 16.336 23.3344 16.504C23.1584 16.664 23.0704 16.864 23.0704 17.104C23.0704 17.376 23.1784 17.592 23.3944 17.752C23.6104 17.912 23.9104 17.992 24.2944 17.992C24.6624 17.992 24.9904 17.908 25.2784 17.74C25.5744 17.572 25.7864 17.324 25.9144 16.996L26.1664 17.896C26.0224 18.272 25.7624 18.564 25.3864 18.772C25.0184 18.98 24.5504 19.084 23.9824 19.084ZM29.3395 19V12.592H30.8395V19H29.3395ZM30.0955 11.536C29.8155 11.536 29.5835 11.448 29.3995 11.272C29.2235 11.096 29.1355 10.884 29.1355 10.636C29.1355 10.38 29.2235 10.168 29.3995 10C29.5835 9.824 29.8155 9.736 30.0955 9.736C30.3755 9.736 30.6035 9.82 30.7795 9.988C30.9635 10.148 31.0555 10.352 31.0555 10.6C31.0555 10.864 30.9675 11.088 30.7915 11.272C30.6155 11.448 30.3835 11.536 30.0955 11.536ZM35.2202 19.084C34.5162 19.084 33.9722 18.904 33.5882 18.544C33.2042 18.176 33.0122 17.636 33.0122 16.924V11.176H34.5122V16.888C34.5122 17.192 34.5882 17.428 34.7402 17.596C34.9002 17.764 35.1202 17.848 35.4002 17.848C35.7362 17.848 36.0162 17.76 36.2402 17.584L36.6602 18.652C36.4842 18.796 36.2682 18.904 36.0122 18.976C35.7562 19.048 35.4922 19.084 35.2202 19.084ZM31.9562 13.84V12.64H36.2282V13.84H31.9562ZM37.8942 19V12.592H39.3942V19H37.8942ZM38.6502 11.536C38.3702 11.536 38.1382 11.448 37.9542 11.272C37.7782 11.096 37.6902 10.884 37.6902 10.636C37.6902 10.38 37.7782 10.168 37.9542 10C38.1382 9.824 38.3702 9.736 38.6502 9.736C38.9302 9.736 39.1582 9.82 39.3342 9.988C39.5182 10.148 39.6102 10.352 39.6102 10.6C39.6102 10.864 39.5222 11.088 39.3462 11.272C39.1702 11.448 38.9382 11.536 38.6502 11.536ZM44.9989 12.52C45.5109 12.52 45.9669 12.62 46.3669 12.82C46.7749 13.02 47.0949 13.328 47.3269 13.744C47.5589 14.152 47.6749 14.68 47.6749 15.328V19H46.1749V15.52C46.1749 14.952 46.0389 14.528 45.7669 14.248C45.5029 13.968 45.1309 13.828 44.6509 13.828C44.2989 13.828 43.9869 13.9 43.7149 14.044C43.4429 14.188 43.2309 14.404 43.0789 14.692C42.9349 14.972 42.8629 15.328 42.8629 15.76V19H41.3629V12.592H42.7909V14.32L42.5389 13.792C42.7629 13.384 43.0869 13.072 43.5109 12.856C43.9429 12.632 44.4389 12.52 44.9989 12.52ZM52.4935 21.412C51.9015 21.412 51.3215 21.332 50.7535 21.172C50.1935 21.02 49.7335 20.796 49.3735 20.5L50.0455 19.372C50.3255 19.604 50.6775 19.788 51.1015 19.924C51.5335 20.068 51.9695 20.14 52.4095 20.14C53.1135 20.14 53.6295 19.976 53.9575 19.648C54.2855 19.328 54.4495 18.844 54.4495 18.196V17.056L54.5695 15.604L54.5215 14.152V12.592H55.9495V18.028C55.9495 19.188 55.6535 20.04 55.0615 20.584C54.4695 21.136 53.6135 21.412 52.4935 21.412ZM52.3015 18.712C51.6935 18.712 51.1415 18.584 50.6455 18.328C50.1575 18.064 49.7695 17.7 49.4815 17.236C49.2015 16.772 49.0615 16.228 49.0615 15.604C49.0615 14.988 49.2015 14.448 49.4815 13.984C49.7695 13.52 50.1575 13.16 50.6455 12.904C51.1415 12.648 51.6935 12.52 52.3015 12.52C52.8455 12.52 53.3335 12.628 53.7655 12.844C54.1975 13.06 54.5415 13.396 54.7975 13.852C55.0615 14.308 55.1935 14.892 55.1935 15.604C55.1935 16.316 55.0615 16.904 54.7975 17.368C54.5415 17.824 54.1975 18.164 53.7655 18.388C53.3335 18.604 52.8455 18.712 52.3015 18.712ZM52.5295 17.44C52.9055 17.44 53.2415 17.364 53.5375 17.212C53.8335 17.052 54.0615 16.836 54.2215 16.564C54.3895 16.284 54.4735 15.964 54.4735 15.604C54.4735 15.244 54.3895 14.928 54.2215 14.656C54.0615 14.376 53.8335 14.164 53.5375 14.02C53.2415 13.868 52.9055 13.792 52.5295 13.792C52.1535 13.792 51.8135 13.868 51.5095 14.02C51.2135 14.164 50.9815 14.376 50.8135 14.656C50.6535 14.928 50.5735 15.244 50.5735 15.604C50.5735 15.964 50.6535 16.284 50.8135 16.564C50.9815 16.836 51.2135 17.052 51.5095 17.212C51.8135 17.364 52.1535 17.44 52.5295 17.44Z" fill="#FAFAFA"/>
</svg>
