<svg width="18" height="18" viewBox="0 0 18 18" fill="none" xmlns="http://www.w3.org/2000/svg">
<path d="M12.75 14.25H14.25V8.25H9.75V14.25H11.25V9.75H12.75V14.25ZM2.25 14.25V3C2.25 2.80109 2.32902 2.61032 2.46967 2.46967C2.61032 2.32902 2.80109 2.25 3 2.25H13.5C13.6989 2.25 13.8897 2.32902 14.0303 2.46967C14.171 2.61032 14.25 2.80109 14.25 3V6.75H15.75V14.25H16.5V15.75H1.5V14.25H2.25ZM5.25 8.25V9.75H6.75V8.25H5.25ZM5.25 11.25V12.75H6.75V11.25H5.25ZM5.25 5.25V6.75H6.75V5.25H5.25Z" fill="#4F5B67"/>
</svg>
