<svg width="19" height="24" viewBox="0 0 19 24" fill="none" xmlns="http://www.w3.org/2000/svg">
<path d="M18.3009 12.606L14.6392 16.0346C14.4605 16.2019 14.2261 16.2857 13.992 16.2857C13.7579 16.2857 13.5235 16.2019 13.3448 16.0346C12.9871 15.6996 12.9871 15.1573 13.3448 14.8226L15.4439 12.8571H6.66867C6.16268 12.8571 5.75326 12.4738 5.75326 12C5.75326 11.5262 6.16268 11.1429 6.66867 11.1429H15.4439L13.3448 9.17743C12.9871 8.8425 12.9871 8.30014 13.3448 7.96543C13.7025 7.63071 14.2817 7.6305 14.6392 7.96543L18.3009 11.394C18.6586 11.7287 18.6586 12.2713 18.3009 12.606ZM12.1612 22.2857H3.00701C2.50193 22.2857 2.09159 21.9015 2.09159 21.4286V2.57143C2.09159 2.0985 2.50193 1.71429 3.00701 1.71429H12.1612C12.6672 1.71429 13.0766 1.33093 13.0766 0.857143C13.0766 0.383357 12.6672 0 12.1612 0H3.00701C1.49268 0 0.260757 1.1535 0.260757 2.57143V21.4286C0.260757 22.8465 1.49268 24 3.00701 24H12.1612C12.6672 24 13.0766 23.6166 13.0766 23.1429C13.0766 22.6691 12.6672 22.2857 12.1612 22.2857Z" fill="#CDD3D9"/>
</svg>
