<svg width="24" height="22" viewBox="0 0 24 22" fill="none" xmlns="http://www.w3.org/2000/svg">
<path d="M11.6013 4.40011C10.9859 4.40011 10.3958 4.63189 9.96064 5.04447C9.52551 5.45704 9.28105 6.01661 9.28105 6.60007C9.28105 7.18354 9.52551 7.74311 9.96064 8.15568C10.3958 8.56826 10.9859 8.80004 11.6013 8.80004C12.2167 8.80004 12.8069 8.56826 13.242 8.15568C13.6771 7.74311 13.9216 7.18354 13.9216 6.60007C13.9216 6.01661 13.6771 5.45704 13.242 5.04447C12.8069 4.63189 12.2167 4.40011 11.6013 4.40011ZM7.54084 15.9499C7.387 15.9499 7.23946 16.0079 7.13067 16.111C7.02189 16.2141 6.96078 16.354 6.96078 16.4999C6.96078 16.6458 7.02189 16.7857 7.13067 16.8888C7.23946 16.992 7.387 17.0499 7.54084 17.0499H15.6618C15.8156 17.0499 15.9632 16.992 16.072 16.8888C16.1808 16.7857 16.2419 16.6458 16.2419 16.4999C16.2419 16.354 16.1808 16.2141 16.072 16.111C15.9632 16.0079 15.8156 15.9499 15.6618 15.9499H7.54084ZM4.6405 4.40011C4.6405 3.81665 4.88496 3.25708 5.32009 2.8445C5.75523 2.43193 6.3454 2.20015 6.96078 2.20015H16.2419C16.8572 2.20015 17.4474 2.43193 17.8825 2.8445C18.3177 3.25708 18.5621 3.81665 18.5621 4.40011V17.5999C18.5621 18.1834 18.3177 18.7429 17.8825 19.1555C17.4474 19.5681 16.8572 19.7999 16.2419 19.7999H6.96078C6.3454 19.7999 5.75523 19.5681 5.32009 19.1555C4.88496 18.7429 4.6405 18.1834 4.6405 17.5999V4.40011ZM16.2419 3.30013H6.96078C6.65309 3.30013 6.358 3.41602 6.14044 3.62231C5.92287 3.82859 5.80064 4.10838 5.80064 4.40011V13.2H8.12091V11C8.12091 10.7083 8.24314 10.4285 8.46071 10.2222C8.67828 10.0159 8.97336 9.90002 9.28105 9.90002H13.9216C14.2293 9.90002 14.5244 10.0159 14.7419 10.2222C14.9595 10.4285 15.0817 10.7083 15.0817 11V13.2H17.402V4.40011C17.402 4.10838 17.2798 3.82859 17.0622 3.62231C16.8446 3.41602 16.5496 3.30013 16.2419 3.30013ZM5.80064 14.2999V17.5999C5.80064 17.8916 5.92287 18.1714 6.14044 18.3777C6.358 18.584 6.65309 18.6999 6.96078 18.6999H16.2419C16.5496 18.6999 16.8446 18.584 17.0622 18.3777C17.2798 18.1714 17.402 17.8916 17.402 17.5999V14.2999H5.80064Z" fill="#3333D1"/>
</svg>
