<svg width="15" height="18" viewBox="0 0 15 18" fill="none" xmlns="http://www.w3.org/2000/svg">
<path d="M1.8125 16.8929H13.1875C13.403 16.8929 13.6097 16.8097 13.762 16.6617C13.9144 16.5137 14 16.3129 14 16.1036V5.05358L10.3438 1.10715H1.8125C1.59701 1.10715 1.39035 1.1903 1.23798 1.33832C1.0856 1.48634 1 1.6871 1 1.89643V16.1036C1 16.3129 1.0856 16.5137 1.23798 16.6617C1.39035 16.8097 1.59701 16.8929 1.8125 16.8929Z" stroke="#4F5B67" stroke-linecap="round" stroke-linejoin="round"/>
<path d="M7.5 10.5792C8.39746 10.5792 9.125 9.87247 9.125 9.00064C9.125 8.12882 8.39746 7.42207 7.5 7.42207C6.60254 7.42207 5.875 8.12882 5.875 9.00064C5.875 9.87247 6.60254 10.5792 7.5 10.5792Z" stroke="#4F5B67" stroke-linecap="round" stroke-linejoin="round"/>
<path d="M9.9375 1.10722V5.05365H14M10.75 13.7358C10.75 12.8985 10.4076 12.0954 9.7981 11.5034C9.1886 10.9113 8.36195 10.5787 7.5 10.5787C6.63805 10.5787 5.8114 10.9113 5.2019 11.5034C4.59241 12.0954 4.25 12.8985 4.25 13.7358H10.75Z" stroke="#4F5B67" stroke-linecap="round" stroke-linejoin="round"/>
</svg>
