<svg width="161" height="49" viewBox="0 0 161 49" fill="none" xmlns="http://www.w3.org/2000/svg">
<g filter="url(#filter0_d_1_1156)">
<rect x="4" width="153" height="41" rx="15" fill="#FF513A"/>
<path d="M41 21H33C32.7267 21 32.5 20.7733 32.5 20.5C32.5 20.2267 32.7267 20 33 20H41C41.2733 20 41.5 20.2267 41.5 20.5C41.5 20.7733 41.2733 21 41 21Z" fill="white"/>
<path d="M37 25C36.7267 25 36.5 24.7733 36.5 24.5V16.5C36.5 16.2267 36.7267 16 37 16C37.2733 16 37.5 16.2267 37.5 16.5V24.5C37.5 24.7733 37.2733 25 37 25Z" fill="white"/>
<path d="M61.218 15.7V22.336L55.814 15.7H54.316V25.5H56.122V18.864L61.526 25.5H63.024V15.7H61.218ZM72.23 21.804C72.23 19.466 70.634 17.94 68.45 17.94C66.224 17.94 64.586 19.536 64.586 21.762C64.586 23.988 66.21 25.598 68.716 25.598C70.004 25.598 71.054 25.178 71.726 24.38L70.788 23.302C70.256 23.848 69.598 24.114 68.758 24.114C67.456 24.114 66.546 23.414 66.336 22.322H72.202C72.216 22.154 72.23 21.944 72.23 21.804ZM68.45 19.34C69.598 19.34 70.424 20.082 70.564 21.16H66.322C66.49 20.068 67.316 19.34 68.45 19.34ZM83.6023 18.024L81.5723 23.568L79.5563 18.024H78.0863L76.0283 23.54L74.0543 18.024H72.4023L75.1463 25.5H76.8263L78.7863 20.348L80.7183 25.5H82.3983L85.1563 18.024H83.6023ZM100.561 25.5L100.547 15.7H99.0486L95.2266 22.196L91.3346 15.7H89.8366V25.5H91.5726V19.088L94.7926 24.38H95.6046L98.8246 19.004L98.8386 25.5H100.561ZM106.12 25.598C108.444 25.598 110.11 24.002 110.11 21.762C110.11 19.522 108.444 17.94 106.12 17.94C103.824 17.94 102.144 19.522 102.144 21.762C102.144 24.002 103.824 25.598 106.12 25.598ZM106.12 24.1C104.86 24.1 103.908 23.19 103.908 21.762C103.908 20.334 104.86 19.424 106.12 19.424C107.394 19.424 108.346 20.334 108.346 21.762C108.346 23.19 107.394 24.1 106.12 24.1ZM117.075 15.112V18.948C116.487 18.262 115.633 17.94 114.667 17.94C112.497 17.94 110.887 19.438 110.887 21.762C110.887 24.086 112.497 25.598 114.667 25.598C115.689 25.598 116.557 25.248 117.145 24.534V25.5H118.825V15.112H117.075ZM114.877 24.1C113.617 24.1 112.651 23.19 112.651 21.762C112.651 20.334 113.617 19.424 114.877 19.424C116.137 19.424 117.103 20.334 117.103 21.762C117.103 23.19 116.137 24.1 114.877 24.1ZM123.69 17.94C122.486 17.94 121.324 18.248 120.526 18.864L121.212 20.138C121.772 19.676 122.64 19.396 123.48 19.396C124.726 19.396 125.342 19.998 125.342 21.02V21.132H123.41C121.142 21.132 120.302 22.112 120.302 23.358C120.302 24.66 121.38 25.598 123.088 25.598C124.208 25.598 125.02 25.234 125.44 24.59V25.5H127.092V21.118C127.092 18.962 125.846 17.94 123.69 17.94ZM123.452 24.324C122.556 24.324 122.024 23.918 122.024 23.288C122.024 22.742 122.346 22.294 123.536 22.294H125.342V23.162C125.048 23.932 124.306 24.324 123.452 24.324ZM129.058 25.5H130.808V15.112H129.058V25.5Z" fill="white"/>
</g>
<defs>
<filter id="filter0_d_1_1156" x="0" y="0" width="161" height="49" filterUnits="userSpaceOnUse" color-interpolation-filters="sRGB">
<feFlood flood-opacity="0" result="BackgroundImageFix"/>
<feColorMatrix in="SourceAlpha" type="matrix" values="0 0 0 0 0 0 0 0 0 0 0 0 0 0 0 0 0 0 127 0" result="hardAlpha"/>
<feOffset dy="4"/>
<feGaussianBlur stdDeviation="2"/>
<feComposite in2="hardAlpha" operator="out"/>
<feColorMatrix type="matrix" values="0 0 0 0 0.945833 0 0 0 0 0.914306 0 0 0 0 0.914306 0 0 0 0.25 0"/>
<feBlend mode="normal" in2="BackgroundImageFix" result="effect1_dropShadow_1_1156"/>
<feBlend mode="normal" in="SourceGraphic" in2="effect1_dropShadow_1_1156" result="shape"/>
</filter>
</defs>
</svg>
