<svg width="14" height="18" viewBox="0 0 14 18" fill="none" xmlns="http://www.w3.org/2000/svg">
<path fill-rule="evenodd" clip-rule="evenodd" d="M2.8 1.38457C2.8 1.01736 2.9475 0.665191 3.21005 0.405533C3.4726 0.145874 3.8287 0 4.2 0H7.93333C8.30464 0 8.66073 0.145874 8.92328 0.405533C9.18583 0.665191 9.33333 1.01736 9.33333 1.38457H10.7333C11.1046 1.38457 11.4607 1.53045 11.7233 1.79011C11.9858 2.04977 12.1333 2.40194 12.1333 2.76915V9.69202H11.2V2.76915C11.2 2.64675 11.1508 2.52935 11.0633 2.4428C10.9758 2.35625 10.8571 2.30762 10.7333 2.30762H9.33333C9.33333 2.67484 9.18583 3.02701 8.92328 3.28667C8.66073 3.54632 8.30464 3.6922 7.93333 3.6922H4.2C3.8287 3.6922 3.4726 3.54632 3.21005 3.28667C2.9475 3.02701 2.8 2.67484 2.8 2.30762H1.4C1.27623 2.30762 1.15753 2.35625 1.07002 2.4428C0.9825 2.52935 0.933333 2.64675 0.933333 2.76915V15.6918C0.933333 15.8142 0.9825 15.9316 1.07002 16.0182C1.15753 16.1047 1.27623 16.1534 1.4 16.1534H7V17.0764H1.4C1.0287 17.0764 0.672601 16.9305 0.41005 16.6709C0.147499 16.4112 0 16.0591 0 15.6918V2.76915C0 2.40194 0.147499 2.04977 0.41005 1.79011C0.672601 1.53045 1.0287 1.38457 1.4 1.38457H2.8ZM4.2 0.92305C4.07623 0.92305 3.95753 0.971675 3.87002 1.05823C3.7825 1.14478 3.73333 1.26217 3.73333 1.38457V2.30762C3.73333 2.43003 3.7825 2.54742 3.87002 2.63397C3.95753 2.72052 4.07623 2.76915 4.2 2.76915H7.93333C8.0571 2.76915 8.1758 2.72052 8.26332 2.63397C8.35083 2.54742 8.4 2.43003 8.4 2.30762V1.38457C8.4 1.26217 8.35083 1.14478 8.26332 1.05823C8.1758 0.971675 8.0571 0.92305 7.93333 0.92305H4.2ZM5.6 5.5383V6.92287H4.2V7.84592H5.6V9.2305H6.53333V7.84592H7.93333V6.92287H6.53333V5.5383H5.6ZM7.93333 10.6151C7.80957 10.6151 7.69087 10.6637 7.60335 10.7502C7.51583 10.8368 7.46667 10.9542 7.46667 11.0766V14.2099C7.46669 14.7417 7.59947 15.2653 7.85321 15.7342C8.10696 16.2031 8.47383 16.6028 8.92127 16.8978L10.4743 17.9224C10.551 17.973 10.6411 18 10.7333 18C10.8255 18 10.9156 17.973 10.9923 17.9224L12.5454 16.8978C12.9928 16.6028 13.3596 16.2032 13.6133 15.7344C13.8671 15.2656 13.9999 14.7421 14 14.2104V11.0766C14 10.9542 13.9508 10.8368 13.8633 10.7502C13.7758 10.6637 13.6571 10.6151 13.5333 10.6151H7.93333ZM12.4633 13.249L10.5966 15.0951C10.5091 15.1816 10.3904 15.2302 10.2667 15.2302C10.1429 15.2302 10.0242 15.1816 9.93673 15.0951L9.0034 14.172L9.66327 13.5194L10.2667 14.1162L11.8034 12.5964L12.4633 13.249Z" fill="#4F5B67"/>
</svg>
