<svg width="192" height="65" viewBox="0 0 192 65" fill="none" xmlns="http://www.w3.org/2000/svg">
<path d="M116.093 64.75L91.1759 31.265L114.32 0H106.854L87.2564 26.455L67.5654 0H59.633L82.8703 31.45L58.0465 64.75H65.9789L86.9764 36.26L108.067 64.75H116.093Z" fill="url(#paint0_linear_1_801)"/>
<path d="M124.633 39.733C127.382 39.733 129.658 38.7492 131.145 36.9382L128.801 34.7917C127.742 36.0215 126.413 36.6475 124.836 36.6475C121.884 36.6475 119.788 34.5905 119.788 31.6392C119.788 28.6879 121.884 26.6309 124.836 26.6309C126.413 26.6309 127.742 27.257 128.801 28.4643L131.145 26.3179C129.658 24.5292 127.382 23.5455 124.655 23.5455C119.743 23.5455 116.093 26.9216 116.093 31.6392C116.093 36.3568 119.743 39.733 124.633 39.733Z" fill="#4572E5"/>
<path d="M133.159 39.4647H144.718V36.5133H136.809V23.8138H133.159V39.4647Z" fill="#4572E5"/>
<path d="M146.307 39.4647H149.957V23.8138H146.307V39.4647Z" fill="#4572E5"/>
<path d="M164.111 23.8138V33.3161L156.269 23.8138H153.25V39.4647H156.855V29.9623L164.719 39.4647H167.716V23.8138H164.111Z" fill="#4572E5"/>
<path d="M170.997 39.4647H174.647V23.8138H170.997V39.4647Z" fill="#4572E5"/>
<path d="M185.488 39.733C188.237 39.733 190.513 38.7492 192 36.9382L189.657 34.7917C188.598 36.0215 187.268 36.6475 185.691 36.6475C182.739 36.6475 180.644 34.5905 180.644 31.6392C180.644 28.6879 182.739 26.6309 185.691 26.6309C187.268 26.6309 188.598 27.257 189.657 28.4643L192 26.3179C190.513 24.5292 188.237 23.5455 185.511 23.5455C180.599 23.5455 176.948 26.9216 176.948 31.6392C176.948 36.3568 180.599 39.733 185.488 39.733Z" fill="#4572E5"/>
<path d="M14.408 41.2045H16.1778L8.91706 25.017H7.26071L0 41.2045H1.74711L3.65304 36.8802H12.502L14.408 41.2045ZM4.26567 35.4927L8.07754 26.7977L11.8894 35.4927H4.26567Z" fill="#4F5B67"/>
<path d="M18.3514 41.2045H28.9248V39.7245H20.0304V25.017H18.3514V41.2045Z" fill="#4F5B67"/>
<path d="M42.1499 26.497V25.017H31.2588V41.2045H32.9379V34.3364H41.1515V32.8564H32.9379V26.497H42.1499Z" fill="#4F5B67"/>
<path d="M56.2767 41.2045H58.0465L50.7858 25.017H49.1294L41.8687 41.2045H43.6158L45.5218 36.8802H54.3708L56.2767 41.2045ZM46.1344 35.4927L49.9463 26.7977L53.7582 35.4927H46.1344Z" fill="#4F5B67"/>
<defs>
<linearGradient id="paint0_linear_1_801" x1="21.8663" y1="-27.7498" x2="200.466" y2="-27.7499" gradientUnits="userSpaceOnUse">
<stop/>
<stop offset="0.458333" stop-color="#4572E5"/>
</linearGradient>
</defs>
</svg>
