<svg width="10" height="13" viewBox="0 0 10 13" fill="none" xmlns="http://www.w3.org/2000/svg">
<path fill-rule="evenodd" clip-rule="evenodd" d="M9.56255 12.25C9.44652 12.25 9.33524 12.2039 9.25319 12.1219C9.17114 12.0398 9.12505 11.9285 9.12505 11.8125V0.4375C9.12505 0.321468 9.17114 0.210188 9.25319 0.128141C9.33524 0.0460936 9.44652 0 9.56255 0C9.67858 0 9.78986 0.0460936 9.87191 0.128141C9.95396 0.210188 10 0.321468 10 0.4375V11.8125C10 11.9285 9.95396 12.0398 9.87191 12.1219C9.78986 12.2039 9.67858 12.25 9.56255 12.25ZM7.37505 6.125C7.37505 6.24103 7.32896 6.35231 7.24691 6.43436C7.16486 6.51641 7.05358 6.5625 6.93755 6.5625H1.86867L3.7473 8.44025C3.78798 8.48093 3.82024 8.52922 3.84226 8.58236C3.86427 8.63551 3.8756 8.69247 3.8756 8.75C3.8756 8.80753 3.86427 8.86449 3.84226 8.91764C3.82024 8.97078 3.78798 9.01907 3.7473 9.05975C3.70662 9.10043 3.65833 9.13269 3.60519 9.15471C3.55204 9.17672 3.49508 9.18805 3.43755 9.18805C3.38002 9.18805 3.32306 9.17672 3.26991 9.15471C3.21677 9.13269 3.16848 9.10043 3.1278 9.05975L0.5028 6.43475C0.462057 6.39411 0.429732 6.34583 0.407676 6.29268C0.385621 6.23953 0.374268 6.18255 0.374268 6.125C0.374268 6.06745 0.385621 6.01047 0.407676 5.95732C0.429732 5.90417 0.462057 5.85589 0.5028 5.81525L3.1278 3.19025C3.20995 3.1081 3.32137 3.06195 3.43755 3.06195C3.55373 3.06195 3.66515 3.1081 3.7473 3.19025C3.82945 3.2724 3.8756 3.38382 3.8756 3.5C3.8756 3.61618 3.82945 3.7276 3.7473 3.80975L1.86867 5.6875H6.93755C7.05358 5.6875 7.16486 5.73359 7.24691 5.81564C7.32896 5.89769 7.37505 6.00897 7.37505 6.125Z" fill="#4F5B67"/>
</svg>
